<svg id="visual" viewBox="0 0 900 600" width="900" height="600" xmlns="http://www.w3.org/2000/svg" xmlns:xlink="http://www.w3.org/1999/xlink" version="1.1"><rect x="0" y="0" width="900" height="600" fill="#002233"></rect><path d="M0 453L13.7 462.2C27.3 471.3 54.7 489.7 82 507.3C109.3 525 136.7 542 163.8 547.8C191 553.7 218 548.3 245.2 546.2C272.3 544 299.7 545 327 536.5C354.3 528 381.7 510 409 509.7C436.3 509.3 463.7 526.7 491 523.8C518.3 521 545.7 498 573 482.3C600.3 466.7 627.7 458.3 654.8 449.8C682 441.3 709 432.7 736.2 434.2C763.3 435.7 790.7 447.3 818 455.7C845.3 464 872.7 469 886.3 471.5L900 474L900 601L886.3 601C872.7 601 845.3 601 818 601C790.7 601 763.3 601 736.2 601C709 601 682 601 654.8 601C627.7 601 600.3 601 573 601C545.7 601 518.3 601 491 601C463.7 601 436.3 601 409 601C381.7 601 354.3 601 327 601C299.7 601 272.3 601 245.2 601C218 601 191 601 163.8 601C136.7 601 109.3 601 82 601C54.7 601 27.3 601 13.7 601L0 601Z" fill="#845ec2" stroke-linecap="round" stroke-linejoin="miter"></path></svg>